<svg width="58" height="58" viewBox="0 0 58 58" fill="none" xmlns="http://www.w3.org/2000/svg">
<rect x="2" y="2" width="54" height="54" rx="27" fill="black"/>
<path d="M24.0001 45.25C26.9901 45.25 29.4169 42.8233 29.4169 39.8333V34.4166H24.0001C21.0101 34.4166 18.5834 36.8433 18.5834 39.8333C18.5834 42.8233 21.0101 45.25 24.0001 45.25Z" fill="white"/>
<path d="M18.5834 29C18.5834 26.01 21.0101 23.5833 24.0001 23.5833H29.4169V34.4166H24.0001C21.0101 34.4167 18.5834 31.99 18.5834 29Z" fill="white"/>
<path d="M18.5834 18.1667C18.5834 15.1767 21.0101 12.75 24.0001 12.75H29.4169V23.5833H24.0001C21.0101 23.5833 18.5834 21.1567 18.5834 18.1667Z" fill="white"/>
<path d="M29.4166 12.75H34.8334C37.8234 12.75 40.2501 15.1767 40.2501 18.1667C40.2501 21.1567 37.8234 23.5833 34.8334 23.5833H29.4166V12.75Z" fill="white"/>
<path d="M40.2501 29C40.2501 31.99 37.8234 34.4167 34.8334 34.4167C31.8434 34.4167 29.4166 31.99 29.4166 29C29.4166 26.01 31.8434 23.5833 34.8334 23.5833C37.8234 23.5833 40.2501 26.01 40.2501 29Z" fill="white"/>
<rect x="2" y="2" width="54" height="54" rx="27" stroke="white" stroke-width="4"/>
</svg>
