<svg width="70" height="70" viewBox="0 0 70 70" fill="none" xmlns="http://www.w3.org/2000/svg">
<path d="M52.5 61.25H17.5C15.8892 61.25 14.5833 59.9442 14.5833 58.3333L14.5833 11.6667C14.5833 10.0558 15.8892 8.75 17.5 8.75L39.559 8.75C40.3715 8.75 41.1471 9.0889 41.6991 9.68506L54.6401 23.6613C55.1393 24.2005 55.4167 24.9082 55.4167 25.6429L55.4167 58.3333C55.4167 59.9442 54.1108 61.25 52.5 61.25Z" stroke="black" stroke-width="4" stroke-linecap="round" stroke-linejoin="round"/>
<path d="M26.25 49.5833H43.75" stroke="black" stroke-width="4" stroke-linecap="round" stroke-linejoin="round"/>
<path d="M26.25 40.8333H43.75" stroke="black" stroke-width="4" stroke-linecap="round" stroke-linejoin="round"/>
<path d="M55.4167 26.25L40.8334 26.25C39.2225 26.25 37.9167 24.9442 37.9167 23.3333L37.9167 8.75" stroke="black" stroke-width="4" stroke-linecap="round" stroke-linejoin="round"/>
</svg>
