<svg width="70" height="70" viewBox="0 0 70 70" fill="none" xmlns="http://www.w3.org/2000/svg">
<path d="M57.3373 28.2952L36.9206 10.4306C35.821 9.46837 34.179 9.46837 33.0794 10.4306L12.6627 28.2952C12.0297 28.849 11.6667 29.6491 11.6667 30.4902V55.4167C11.6667 57.0275 12.9725 58.3334 14.5833 58.3334H26.25C27.8608 58.3334 29.1667 57.0275 29.1667 55.4167V43.75C29.1667 42.1392 30.4725 40.8334 32.0833 40.8334H37.9167C39.5275 40.8334 40.8333 42.1392 40.8333 43.75V55.4167C40.8333 57.0275 42.1392 58.3334 43.75 58.3334H55.4167C57.0275 58.3334 58.3333 57.0275 58.3333 55.4167V30.4902C58.3333 29.6491 57.9703 28.849 57.3373 28.2952Z" stroke="black" stroke-width="4" stroke-linecap="round" stroke-linejoin="round"/>
</svg>
