<svg width="70" height="70" viewBox="0 0 70 70" fill="none" xmlns="http://www.w3.org/2000/svg">
<path d="M35 46.6666C41.4433 46.6666 46.6667 41.4433 46.6667 35C46.6667 28.5567 41.4433 23.3333 35 23.3333C28.5567 23.3333 23.3333 28.5567 23.3333 35C23.3333 41.4433 28.5567 46.6666 35 46.6666Z" stroke="black" stroke-width="4" stroke-linecap="round" stroke-linejoin="round"/>
<path d="M55.7122 22.8264L57.4441 21.826L57.4441 21.826L55.7122 22.8264ZM55.904 23.1585L54.1722 24.1588L54.1722 24.1588L55.904 23.1585ZM58.1194 25.3383L59.0917 23.5905L59.0917 23.5905L58.1194 25.3383ZM62.6435 27.8551L61.6712 29.6029L61.6712 29.6029L62.6435 27.8551ZM64.1423 30.3973L62.1423 30.4018L62.1423 30.4018L64.1423 30.3973ZM64.1631 39.5901L62.1631 39.5947L62.1631 39.5947L64.1631 39.5901ZM62.6602 42.1479L61.6908 40.3985L61.6908 40.3985L62.6602 42.1479ZM58.1251 44.6611L59.0946 46.4104L59.0946 46.4104L58.1251 44.6611ZM55.9015 46.8455L54.1697 45.8451L54.1696 45.8452L55.9015 46.8455ZM55.7122 47.1732L57.4441 48.1735L57.4441 48.1735L55.7122 47.1732ZM54.9309 50.1891L52.9312 50.2227L52.9312 50.2227L54.9309 50.1891ZM55.0183 55.3834L53.0186 55.417L53.0186 55.417L55.0183 55.3834ZM53.5661 57.955L52.5622 56.2253L52.5622 56.2253L53.5661 57.955ZM45.6095 62.573L46.6134 64.3028L46.6134 64.3028L45.6095 62.573ZM42.6442 62.551L43.6736 60.8363L43.6736 60.8363L42.6442 62.551ZM38.1931 59.8789L37.1637 61.5936L37.1637 61.5936L38.1931 59.8789ZM31.8098 59.8754L32.8372 61.5913L32.8372 61.5913L31.8098 59.8754ZM27.3791 62.5284L26.3517 60.8124L26.3517 60.8124L27.3791 62.5284ZM24.4245 62.5531L25.4231 60.8202L25.4231 60.8202L24.4245 62.5531ZM16.4427 57.9535L17.4413 56.2207L17.4413 56.2207L16.4427 57.9535ZM14.9827 55.3772L16.9824 55.411L16.9824 55.411L14.9827 55.3772ZM15.07 50.2056L13.0703 50.1718L13.0703 50.1718L15.07 50.2056ZM14.3001 47.2093L16.0359 46.2157L16.0359 46.2157L14.3001 47.2093ZM14.0974 46.855L12.3616 47.8486L12.3616 47.8486L14.0974 46.855ZM11.8706 44.6552L10.8983 46.403L10.8983 46.403L11.8706 44.6552ZM7.35724 42.1444L6.38495 43.8922L6.38495 43.8922L7.35724 42.1444ZM5.8585 39.6022L3.85851 39.6068L5.8585 39.6022ZM5.83762 30.4094L7.83762 30.4049L5.83762 30.4094ZM7.34053 27.8517L8.30996 29.601L8.30996 29.601L7.34053 27.8517ZM11.8756 25.3385L10.9062 23.5891L10.9062 23.5891L11.8756 25.3385ZM14.0993 23.154L12.3675 22.1536L12.3674 22.1536L14.0993 23.154ZM14.2885 22.8264L16.0204 23.8268L16.0204 23.8268L14.2885 22.8264ZM15.0699 19.8105L17.0696 19.7768L17.0696 19.7768L15.0699 19.8105ZM14.9825 14.6161L12.9828 14.6498L14.9825 14.6161ZM16.4347 12.0445L17.4386 13.7743L17.4386 13.7743L16.4347 12.0445ZM24.3913 7.42656L25.3952 9.15633L25.3952 9.15633L24.3913 7.42656ZM27.3566 7.4485L26.3272 9.16322L26.3272 9.16322L27.3566 7.4485ZM31.8076 10.1207L30.7782 11.8354L30.7782 11.8354L31.8076 10.1207ZM38.191 10.1241L37.1635 8.40823L37.1635 8.40823L38.191 10.1241ZM42.6216 7.47119L41.5942 5.75527L41.5942 5.75527L42.6216 7.47119ZM45.5762 7.44645L46.5748 5.71358L46.5748 5.71358L45.5762 7.44645ZM53.5582 12.046L54.5567 10.3132L54.5567 10.3132L53.5582 12.046ZM55.0182 14.6222L53.0185 14.5886L53.0185 14.5886L55.0182 14.6222ZM54.9309 19.8105L52.9312 19.7768L52.9312 19.7768L54.9309 19.8105ZM53.9804 23.8268L54.1722 24.1588L57.6359 22.1581L57.4441 21.826L53.9804 23.8268ZM57.1471 27.086L61.6712 29.6029L63.6158 26.1073L59.0917 23.5905L57.1471 27.086ZM62.1423 30.4018L62.1631 39.5947L66.1631 39.5856L66.1423 30.3928L62.1423 30.4018ZM61.6908 40.3985L57.1557 42.9117L59.0946 46.4104L63.6297 43.8972L61.6908 40.3985ZM54.1696 45.8452L53.9804 46.1728L57.4441 48.1735L57.6333 47.8459L54.1696 45.8452ZM52.9312 50.2227L53.0186 55.417L57.018 55.3498L56.9306 50.1554L52.9312 50.2227ZM52.5622 56.2253L44.6056 60.8432L46.6134 64.3028L54.57 59.6848L52.5622 56.2253ZM43.6736 60.8363L39.2226 58.1641L37.1637 61.5936L41.6147 64.2658L43.6736 60.8363ZM35.1906 57.0468H34.8065V61.0468H35.1906V57.0468ZM30.7823 58.1595L26.3517 60.8124L28.4066 64.2443L32.8372 61.5913L30.7823 58.1595ZM25.4231 60.8202L17.4413 56.2207L15.4441 59.6864L23.426 64.286L25.4231 60.8202ZM16.9824 55.411L17.0697 50.2393L13.0703 50.1718L12.983 55.3434L16.9824 55.411ZM16.0359 46.2157L15.8331 45.8615L12.3616 47.8486L12.5644 48.2028L16.0359 46.2157ZM12.8428 42.9075L8.32953 40.3967L6.38495 43.8922L10.8983 46.403L12.8428 42.9075ZM7.8585 39.5977L7.83762 30.4049L3.83763 30.414L3.85851 39.6068L7.8585 39.5977ZM8.30996 29.601L12.845 27.0878L10.9062 23.5891L6.3711 26.1023L8.30996 29.601ZM15.8311 24.1544L16.0204 23.8268L12.5567 21.826L12.3675 22.1536L15.8311 24.1544ZM17.0696 19.7768L16.9822 14.5825L12.9828 14.6498L13.0702 19.8441L17.0696 19.7768ZM17.4386 13.7743L25.3952 9.15633L23.3873 5.69679L15.4307 10.3147L17.4386 13.7743ZM26.3272 9.16322L30.7782 11.8354L32.8371 8.40594L28.386 5.73378L26.3272 9.16322ZM34.8101 12.9527H35.1943V8.95272H34.8101V12.9527ZM39.2184 11.8401L43.6491 9.1871L41.5942 5.75527L37.1635 8.40823L39.2184 11.8401ZM44.5777 9.17933L52.5596 13.7789L54.5567 10.3132L46.5748 5.71358L44.5777 9.17933ZM53.0185 14.5886L52.9312 19.7768L56.9306 19.8441L57.0179 14.6559L53.0185 14.5886ZM52.5596 13.7789C52.8484 13.9453 53.0241 14.2553 53.0185 14.5886L57.0179 14.6559C57.048 12.8685 56.1056 11.2057 54.5567 10.3132L52.5596 13.7789ZM43.6491 9.1871C43.9343 9.01632 44.2896 9.01334 44.5777 9.17933L46.5748 5.71358C45.0299 4.8233 43.124 4.83926 41.5942 5.75527L43.6491 9.1871ZM35.1943 12.9527C36.6116 12.9527 38.0024 12.5682 39.2184 11.8401L37.1635 8.40823C36.5685 8.76454 35.8879 8.95272 35.1943 8.95272V12.9527ZM30.7782 11.8354C31.996 12.5665 33.3897 12.9527 34.8101 12.9527V8.95272C34.115 8.95272 33.433 8.76372 32.8371 8.40594L30.7782 11.8354ZM25.3952 9.15633C25.6839 8.98875 26.041 8.99139 26.3272 9.16322L28.386 5.73378C26.8509 4.81213 24.936 4.79796 23.3873 5.69679L25.3952 9.15633ZM16.9822 14.5825C16.9766 14.2503 17.1512 13.941 17.4386 13.7743L15.4307 10.3147C13.8894 11.2093 12.9528 12.8679 12.9828 14.6498L16.9822 14.5825ZM16.0204 23.8268C16.7308 22.5969 17.0935 21.197 17.0696 19.7768L13.0702 19.8441C13.0819 20.5391 12.9044 21.2241 12.5567 21.826L16.0204 23.8268ZM12.845 27.0878C14.0881 26.399 15.1203 25.385 15.8311 24.1544L12.3674 22.1536C12.0196 22.7558 11.5145 23.252 10.9062 23.5891L12.845 27.0878ZM7.83762 30.4049C7.83686 30.0709 8.01783 29.7629 8.30996 29.601L6.3711 26.1023C4.80417 26.9707 3.83356 28.6225 3.83763 30.414L7.83762 30.4049ZM8.32953 40.3967C8.03943 40.2353 7.85925 39.9297 7.8585 39.5977L3.85851 39.6068C3.86255 41.3874 4.82896 43.0266 6.38495 43.8922L8.32953 40.3967ZM15.8331 45.8615C15.1241 44.6228 14.0901 43.6013 12.8428 42.9075L10.8983 46.403C11.5086 46.7425 12.0146 47.2424 12.3616 47.8486L15.8331 45.8615ZM17.0697 50.2393C17.0935 48.8295 16.7363 47.4394 16.0359 46.2157L12.5644 48.2028C12.9071 48.8017 13.0819 49.4819 13.0703 50.1718L17.0697 50.2393ZM17.4413 56.2207C17.1525 56.0543 16.9768 55.7442 16.9824 55.411L12.983 55.3434C12.9528 57.1309 13.8952 58.7939 15.4441 59.6864L17.4413 56.2207ZM26.3517 60.8124C26.0665 60.9832 25.7111 60.9862 25.4231 60.8202L23.426 64.286C24.9709 65.1762 26.8768 65.1603 28.4066 64.2443L26.3517 60.8124ZM34.8065 57.0468C33.3892 57.0468 31.9984 57.4314 30.7823 58.1595L32.8372 61.5913C33.4323 61.235 34.1129 61.0468 34.8065 61.0468V57.0468ZM39.2226 58.1641C38.0047 57.433 36.611 57.0468 35.1906 57.0468V61.0468C35.8857 61.0468 36.5677 61.2358 37.1637 61.5936L39.2226 58.1641ZM44.6056 60.8432C44.3168 61.0108 43.9598 61.0082 43.6736 60.8363L41.6147 64.2658C43.1499 65.1874 45.0648 65.2016 46.6134 64.3028L44.6056 60.8432ZM53.0186 55.417C53.0242 55.7493 52.8495 56.0585 52.5622 56.2253L54.57 59.6848C56.1114 58.7902 57.048 57.1316 57.018 55.3498L53.0186 55.417ZM53.9804 46.1728C53.27 47.4027 52.9073 48.8026 52.9312 50.2227L56.9306 50.1554C56.9189 49.4605 57.0964 48.7754 57.4441 48.1735L53.9804 46.1728ZM57.1557 42.9117C55.9127 43.6006 54.8805 44.6146 54.1697 45.8451L57.6333 47.8459C57.9812 47.2437 58.4863 46.7475 59.0946 46.4104L57.1557 42.9117ZM62.1631 39.5947C62.1639 39.9287 61.9829 40.2366 61.6908 40.3985L63.6297 43.8972C65.1966 43.0289 66.1672 41.377 66.1631 39.5856L62.1631 39.5947ZM61.6712 29.6029C61.9613 29.7642 62.1415 30.0699 62.1423 30.4018L66.1423 30.3928C66.1382 28.6122 65.1718 26.973 63.6158 26.1073L61.6712 29.6029ZM54.1722 24.1588C54.8809 25.3856 55.909 26.3973 57.1471 27.086L59.0917 23.5905C58.4858 23.2535 57.9827 22.7584 57.6359 22.1581L54.1722 24.1588ZM57.4441 21.826C57.0964 21.2241 56.9189 20.5391 56.9306 19.8441L52.9312 19.7768C52.9073 21.197 53.27 22.5969 53.9804 23.8268L57.4441 21.826Z" fill="black"/>
</svg>
