<svg width="70" height="70" viewBox="0 0 70 70" fill="none" xmlns="http://www.w3.org/2000/svg">
<path d="M8.75 17.5L61.25 17.5" stroke="black" stroke-width="4" stroke-linecap="round" stroke-linejoin="round"/>
<path d="M11.6667 58.3333L58.3333 58.3333C59.9442 58.3333 61.25 57.0275 61.25 55.4167L61.25 14.5833C61.25 12.9725 59.9442 11.6667 58.3333 11.6667L11.6667 11.6667C10.0558 11.6667 8.75 12.9725 8.75 14.5833L8.75 55.4167C8.75 57.0275 10.0558 58.3333 11.6667 58.3333Z" stroke="black" stroke-width="4" stroke-linecap="round" stroke-linejoin="round"/>
<path d="M46.6667 46.6667H37.9167" stroke="black" stroke-width="4" stroke-linecap="round" stroke-linejoin="round"/>
<path d="M24.7475 33.5858C23.9665 32.8047 22.7001 32.8047 21.9191 33.5858C21.1381 34.3668 21.1381 35.6332 21.9191 36.4142L24.7475 33.5858ZM29.1666 40.8333L30.5809 42.2475C31.3619 41.4665 31.3619 40.2002 30.5809 39.4191L29.1666 40.8333ZM21.9191 45.2525C21.1381 46.0335 21.1381 47.2998 21.9191 48.0809C22.7001 48.8619 23.9665 48.8619 24.7475 48.0809L21.9191 45.2525ZM21.9191 36.4142L27.7524 42.2475L30.5809 39.4191L24.7475 33.5858L21.9191 36.4142ZM27.7524 39.4191L21.9191 45.2525L24.7475 48.0809L30.5809 42.2475L27.7524 39.4191Z" fill="black"/>
</svg>
